PathFileType	4	(X/Y/Z)	C:\Users\avatar\Documents\avatar\mocap1\10002-20130731010438-Unnamed.trc
DataRate	CameraRate	NumFrames	NumMarkers	Units	OrigDataRate	OrigDataStartFrame	OrigNumFrames
400.00	400.00	      37	0	mm	400.00	165	      1313
Frame#	Time	
		

165	0.410				-344.33688	984.56036	271.42902	-341.85327	1149.59766	-89.38401	-510.18204	110.94007	281.22430	-612.40460	89.92502	382.21350										-15.75467	1243.17737	48.41296	-3.34750	1022.27454	566.90039	-215.66167	91.62165	279.33594	-228.36252	656.34558	-123.44986	-2.40585	520.39740	-147.01636	-575.94305	124.21569	-28.26681	
166	0.412	-341.91156	1149.71289	-89.57135	-344.02863	984.62817	271.19678				-510.29819	111.01618	281.15836	-611.41925	90.40473	382.45718	-227.06741	656.51117	-123.20348							-15.79479	1243.19324	48.35749	-3.35990	1022.24176	566.87921	-215.59979	91.61310	279.33725				-1.16633	522.75531	-147.44791	-575.95367	124.24517	-28.28408	
167	0.415				-344.05170	984.65039	271.14655	-341.94669	1149.72009	-89.62605	-510.25964	111.01099	281.15079	-611.41724	90.42581	382.44205				-227.73643	658.07526	-123.21817				-15.95790	1243.24902	48.17706	-3.47556	1022.02368	566.58118	-215.61523	91.61528	279.33337							-576.00922	124.24635	-28.33101	
168	0.417	-0.39686	523.97675	-147.84102	-344.01944	984.74609	271.12604	-342.97379	1149.07947	-90.04205	-510.49655	110.97504	281.05948	-611.43567	90.42581	382.42465				-228.05661	658.59949	-123.23392				-16.01081	1243.37073	47.99120	-3.49275	1021.99377	566.55060	-217.03258	92.49312	279.61902							-576.15662	124.31119	-28.53955	
169	0.420							-342.99081	1149.08728	-90.05837	-510.17026	110.99741	281.15582	-611.44812	90.42239	382.40567	-1.01623	525.95685	-148.30573	-231.16849	660.90997	-123.78063	-668.96326	677.47028	164.81183	-16.14270	1243.19287	47.86378	-3.48892	1021.98438	566.53687	-215.66736	91.62258	279.32507							-576.18213	124.31874	-28.55417	
170	0.423	-344.24188	984.90741	270.79398	-2.33864	528.25574	-147.92188	-343.31290	1149.17847	-90.13219	-510.25171	111.03003	281.10077	-611.38684	90.53387	382.27740				-231.20503	661.00018	-123.78848	-667.01941	676.22394	164.36836	-16.21104	1243.21631	47.62918	-3.44659	1021.97101	566.39087	-215.76605	91.63641	279.30984							-576.22266	124.32940	-28.58969	
171	0.425							-343.26459	1149.20129	-90.18658	-510.34769	111.04997	280.84180	-611.43109	90.52909	382.25604	-344.26736	985.03680	270.65259	-230.07356	661.16638	-123.57339	-667.01941	676.22394	164.36836	-16.49837	1243.04224	47.45418	-3.46064	1021.93811	566.35724	-215.75079	91.63453	279.29272							-576.24664	124.33492	-28.61596	
172	0.428	-345.22549	984.19830	270.03842				-343.29614	1149.29517	-90.38851	-510.34171	111.17941	280.83328	-611.44934	90.53298	382.24792				-230.54497	662.50427	-124.02226	-667.01941	676.22394	164.36836	-16.46704	1243.18713	47.30150	-3.45774	1021.91479	566.31787	-215.80450	91.64196	279.29111							-576.73108	124.48019	-28.95955	
173	0.430				-345.46359	984.22180	269.96106	-343.33463	1149.34875	-90.43583	-510.27045	111.23613	280.77087	-611.44244	90.56422	382.21744	1.81177	530.02112	-150.59343	-231.36307	663.96338	-123.84536	-671.43060	676.51318	163.26582	-16.49365	1243.19177	47.15442	-3.68710	1021.86761	566.06909	-215.63159	91.61768	279.32281							-576.66064	124.43325	-28.81343	
174	0.433	-345.58307	984.29816	269.83780				-343.24051	1149.48083	-90.68275	-510.32642	111.23492	280.65521	-611.53912	90.67452	382.10181				-231.53787	665.13159	-124.02137	-671.61371	676.52521	163.22006	-16.48878	1243.42371	46.97642	-3.65586	1021.82715	565.73669	-215.77422	91.63769	279.29837	2.77961	532.71497	-151.06038	-658.64868	721.94226	319.41736	-576.82086	124.44682	-29.01602	
175	0.435	-345.54883	984.33313	269.67862				-342.94995	1149.66858	-91.03284	-510.05255	111.34472	280.67108	-611.54492	90.67410	382.08548				-232.52087	665.76245	-123.83615				-16.83359	1243.10388	46.74105	-3.64024	1021.83411	565.69708	-215.78549	91.63940	279.28641				-657.66333	721.33655	318.85715	-576.79779	124.54376	-29.16752	
176	0.438	-345.58267	984.31006	269.63562	1.57425	534.56641	-150.92412	-342.94098	1149.69568	-91.07332	-510.13324	111.31962	280.58383	-611.53467	90.70240	382.03845				-234.66808	666.15027	-124.25085				-16.98825	1243.25305	46.54572	-3.60759	1021.86084	565.65796	-215.74039	91.63368	279.24847				-657.81152	721.33459	318.81485	-576.80884	124.54395	-29.18523	
177	0.440	-345.60919	984.31458	269.55542				-343.49588	1149.69617	-91.57643	-510.17822	111.34926	280.53195	-611.51978	90.70647	382.04086	0.72950	535.62946	-152.10703	-232.98811	667.36572	-124.40223				-17.26638	1242.97327	46.35066	-4.03704	1021.28888	565.31500	-217.05083	92.48067	279.59375							-576.84717	124.50439	-29.21637	
178	0.442	-346.69089	983.19763	268.88449				-343.49362	1149.68713	-91.60584	-510.18457	111.46319	280.44992	-611.52539	90.71809	382.02985				-231.46361	668.98492	-124.92751				-17.24240	1242.92603	46.02440	-4.02742	1021.29889	565.28357	-215.70464	91.62829	279.28333							-576.50769	124.54887	-29.44762	
179	0.445	-346.85825	983.26306	268.71365	-299.29019	1502.15955	-84.73124	-343.35574	1149.78198	-91.77583	-509.95059	111.58189	280.36679	-611.51477	90.72921	381.99844				-232.74178	669.90460	-125.00951				-17.27585	1242.92725	45.98023	-4.11548	1021.31555	565.06293	-215.63893	91.61906	279.29535							-576.51428	124.55596	-29.46379	
180	0.447	-346.74399	983.38580	268.48810				-343.41708	1149.95874	-91.96144	-509.92984	111.59843	280.34946	-611.51593	90.73695	381.98315	-299.00537	1502.17456	-84.67432	-231.79704	670.59247	-125.25098	-1.39562	539.58435	-152.28978	-17.28472	1242.93945	45.94487	-4.08985	1021.35815	565.02496	-215.74039	91.63368	279.24847							-576.51892	124.55380	-29.46160	
181	0.450	-346.83334	983.47620	268.27200				-343.38760	1149.97693	-91.99770	-509.87070	111.58474	280.32840	-611.76440	90.73125	381.77847				-232.51770	671.36829	-125.04370	0.54326	541.74280	-152.43434	-17.44290	1242.75562	45.80357	-3.94872	1021.43689	564.89410	-215.69493	91.62736	279.25275							-576.52136	124.54068	-29.46322	
182	0.452	-346.81042	983.57086	268.08493				-343.13605	1149.97449	-92.15350	-509.89294	111.68140	280.21179	-611.46375	90.76112	381.92719				-231.02798	672.72748	-125.47744				-17.76431	1242.74243	45.57658	-3.92148	1021.46252	564.66119	-217.13254	92.49448	279.56888							-576.69244	124.61404	-29.61226	
183	0.455	-347.58749	982.99890	267.07935				-344.33621	1149.27332	-92.90831	-509.70987	111.78844	280.16019	-611.80469	90.74155	381.69968				-230.27267	673.33441	-125.44308				-17.96639	1242.54089	45.41055	-3.94839	1021.46112	564.62506	-216.94743	92.47481	279.57108							-576.68903	124.60793	-29.62296	
184	0.458	-348.63727	982.35217	266.18439	1.62018	544.42987	-153.38765	-344.04431	1149.43701	-93.22385	-509.43811	111.95446	280.06631	-611.76813	90.76501	381.69284				-229.82042	674.35291	-126.02084				-18.30726	1242.36438	45.22440	-3.90853	1021.52850	564.61145										-576.68811	124.60683	-29.62593	
185	0.460	-347.58856	983.54266	266.64276	2.60447	546.22394	-153.19231	-344.28705	1149.48621	-93.38652	-509.47360	111.96003	279.91306	-611.73193	90.78165	381.70224	-599.98022	152.65080	362.28241	-230.74835	675.14825	-125.76034				-18.36884	1242.30884	45.15442	-3.95768	1021.49622	564.56842										-576.71490	124.66283	-29.81339	
186	0.463	-347.58023	983.56757	266.63242				-344.17145	1149.58691	-93.59486	-509.44815	112.12144	279.81619	-611.69733	90.80395	381.68698	-600.16138	152.84293	361.83759	-229.62289	675.83380	-126.01092				-18.45241	1242.09399	45.02743	-3.40213	1022.19135	564.68958										-576.65540	124.70794	-30.02615	
187	0.465	-347.55219	983.55609	266.44272	5.71998	547.69562	-154.72292	-344.86261	1148.63867	-94.33777	-509.36859	112.04118	279.82709	-611.73187	90.79914	381.64386				-231.95657	677.17328	-125.81435				-18.45598	1242.02771	44.77610	-3.25470	1022.20111	564.61969										-576.65948	124.70658	-30.05980	
188	0.468	-347.72098	983.65430	266.25754	2.43058	549.32281	-154.47693	-344.89066	1148.63855	-94.37959	-509.14957	112.14813	279.77661	-611.71674	90.79649	381.64651	-600.09674	152.83582	361.84665							-18.49747	1242.00635	44.73773	-3.34301	1022.04883	564.34430										-576.66541	124.69803	-30.10832	
189	0.470	-347.49622	983.64386	266.12054				-345.01736	1148.76379	-94.58508	-509.13483	112.24390	279.75696	-610.66663	91.42474	381.77643	-600.13373	152.87053	361.78989							-18.54713	1241.98889	44.51570	-3.37088	1022.00690	564.30255										-576.67902	124.71098	-30.20545	
190	0.472	-347.58820	983.73395	265.96771	-867.99249	630.15320	77.62444	-345.00797	1148.75403	-94.62434	-509.08832	112.31035	279.67273	-610.87347	91.24306	381.77890										-18.79297	1241.83008	44.37139	-3.33206	1022.01910	564.15729										-576.68341	124.71789	-30.30066	
191	0.475	-347.62360	983.71942	265.87036				-345.05334	1148.73950	-94.67372	-509.03363	112.29536	279.59216	-610.58746	91.59016	381.66559	-252.39415	571.31396	-200.27136	-868.07782	630.38971	77.14772				-18.81635	1242.21777	44.05511	-3.35466	1021.98572	564.07855										-576.67145	124.75383	-30.44831	
192	0.477	-348.52740	982.68585	265.11215	-251.04967	573.37463	-199.75992	-344.89990	1148.84387	-94.90990	-509.06003	112.24269	279.55844	-610.61981	91.59002	381.62875							-867.93982	630.53168	76.92957	-19.15379	1241.90112	43.82574	-3.39079	1021.95660	564.00134	-599.75989	152.76427	361.76199	-659.24091	720.99261	314.55042				-576.89362	124.79475	-30.61022	
193	0.480	-347.90863	983.52667	264.96713				-345.09946	1148.93115	-95.06987	-508.92981	112.28907	279.59213	-610.39160	91.68262	381.45676	-249.92189	575.61829	-199.31078				-866.88019	631.83575	77.04832	-19.19998	1241.88818	43.76537	-3.40371	1021.91895	563.94690				-658.94611	720.95465	314.44183				-576.90076	124.93346	-30.98056	
194	0.482	-347.67593	983.73132	264.60150				-344.72845	1149.65039	-95.24356	-508.92050	112.21570	279.56567	-610.36719	91.68602	381.46298							-865.98895	632.68054	77.43098	-19.26759	1241.96008	43.50990	-3.39082	1021.91223	563.77502										-576.95087	124.93151	-31.04189	
195	0.485	-347.69333	983.75140	264.56720				-344.77246	1149.64551	-95.27138	-508.74622	112.34373	279.52899	-610.34424	91.77396	381.29987							-866.06659	632.89795	77.01556	-19.21379	1242.09888	43.34133	-3.09261	1022.26630	563.69592										-577.20660	125.02879	-31.36912	
196	0.488	-347.80457	983.82513	264.44730	-251.06369	577.51056	-200.69322	-344.81049	1149.76233	-95.42832	-508.87375	112.20546	279.44775	-610.09912	91.81178	381.17932							-865.56085	633.65338	77.26234	-19.64997	1241.76758	43.06481	-3.09081	1022.27655	563.66516										-576.98041	125.06200	-31.47623	
197	0.490	-347.77924	983.85382	264.42487	-249.71144	579.89166	-200.15523	-344.96017	1149.90466	-95.60423	-508.82339	112.24047	279.43909	-610.06177	91.81825	381.14899	726.37463	1581.60840	385.50449				-864.86847	634.68976	77.01615	-19.70365	1241.73010	42.99850	-3.10349	1022.25330	563.60614										-576.96100	125.12428	-31.77431	
198	0.493	-347.96609	983.83405	264.07281				-344.83081	1149.76782	-95.47993	-508.70267	112.42412	279.47961	-610.02472	91.82730	381.12436				726.12317	1581.62549	385.21335	-864.34497	635.12695	76.93561	-19.71682	1241.82251	42.86761	-3.60299	1021.60431	563.26593										-577.04572	125.16977	-32.04184	
199	0.495	-347.64246	983.93799	263.90085				-344.80112	1150.01355	-95.82962	-508.76047	112.18652	279.41177	-609.97076	91.85365	381.13132				725.38135	1581.60864	384.60547	-864.15515	635.48065	76.79757	-19.83297	1241.69739	42.57530	-4.16096	1021.23181	562.64966										-577.01855	125.23745	-32.30844	
200	0.498	-347.62500	983.96564	263.88342	-251.32185	579.94257	-202.38371	-344.95047	1149.92090	-96.45029	-508.60486	112.24731	279.36789	-609.40930	91.85821	380.94983				725.24609	1581.55884	384.34863	-863.68695	635.80731	76.45515	-20.04418	1241.38293	42.51621	-4.21462	1021.16986	562.57727										-577.26160	125.30460	-32.52028	
201	0.500				-250.79617	582.21808	-201.60345	-344.64523	1150.04163	-96.61506	-508.56274	112.26938	279.35040	-609.42468	91.84486	380.93747				725.22217	1581.65674	383.91949	-862.63086	637.03009	76.70913	-19.93050	1241.48828	42.37209	-4.21557	1021.16724	562.53009										-577.30377	125.34067	-32.66872	
